<svg width="232" height="231" viewBox="0 0 232 231" fill="none" xmlns="http://www.w3.org/2000/svg">
<g opacity="0.6">
<path d="M100.728 203.707C101.722 203.875 102.551 204.251 103.215 204.834C103.878 205.418 104.346 206.154 104.617 207.044C104.885 207.95 104.927 208.947 104.742 210.035C104.55 211.171 104.151 212.134 103.546 212.924C102.942 213.714 102.181 214.274 101.265 214.606C100.333 214.935 99.3148 215.005 98.2105 214.818C97.0432 214.62 96.1962 214.16 95.6696 213.438C95.1272 212.713 94.9296 211.916 95.0767 211.049C95.1784 210.449 95.4417 209.902 95.8666 209.406C96.2758 208.907 96.8253 208.538 97.5151 208.298C98.1892 208.055 98.9443 208.005 99.7803 208.147C100.254 208.227 100.753 208.393 101.278 208.644C101.801 208.911 102.034 209.211 101.978 209.542C101.957 209.668 101.906 209.773 101.827 209.857C101.748 209.941 101.669 209.976 101.59 209.963C101.543 209.955 101.409 209.883 101.188 209.749C100.949 209.627 100.633 209.533 100.238 209.466C99.3706 209.319 98.66 209.441 98.1065 209.834C97.553 210.227 97.22 210.755 97.1077 211.418C97.0113 211.986 97.1177 212.507 97.4267 212.981C97.7199 213.453 98.1742 213.741 98.7894 213.845C99.7201 214.003 100.515 213.716 101.175 212.984C101.816 212.265 102.264 211.156 102.518 209.658C102.735 208.38 102.637 207.333 102.223 206.516C101.792 205.713 101.063 205.224 100.038 205.05C98.7759 204.836 97.6652 205.07 96.7057 205.751C96.6504 205.79 96.5833 205.803 96.5044 205.79C96.3782 205.768 96.2627 205.684 96.1579 205.536C96.0373 205.386 95.9891 205.24 96.0132 205.098C96.0212 205.05 96.045 205.006 96.0846 204.964C96.1215 204.938 96.1413 204.917 96.144 204.901C96.7873 204.361 97.5078 203.988 98.3054 203.782C99.0846 203.59 99.8922 203.565 100.728 203.707Z" fill="black"/>
<path d="M84.4066 199.321C85.3519 199.671 86.1136 200.218 86.6916 200.961C87.2697 201.703 87.6263 202.561 87.7615 203.532C87.8816 204.498 87.7556 205.483 87.3834 206.489C86.9835 207.569 86.4338 208.432 85.7342 209.077C85.0291 209.737 84.2209 210.146 83.3096 210.304C82.3983 210.461 81.4474 210.356 80.4571 209.99C79.4068 209.601 78.6459 209.029 78.1746 208.275C77.6827 207.529 77.5839 206.759 77.8783 205.964C78.095 205.379 78.4603 204.968 78.9743 204.732C79.4827 204.511 80.0295 204.508 80.6147 204.725C80.7498 204.775 80.8417 204.826 80.8907 204.878C80.9396 204.931 80.9501 204.994 80.9224 205.069C80.9057 205.114 80.8246 205.195 80.679 205.312C80.5184 205.423 80.3617 205.57 80.2089 205.752C80.0506 205.949 79.9075 206.22 79.7798 206.566C79.5798 207.106 79.6043 207.593 79.8533 208.026C80.0818 208.469 80.4886 208.799 81.0738 209.015C81.8541 209.304 82.6259 209.155 83.3894 208.567C84.1322 207.989 84.7342 207.077 85.1953 205.832C85.6619 204.572 85.7537 203.471 85.4707 202.53C85.1727 201.584 84.5436 200.933 83.5832 200.578C83.0881 200.394 82.5924 200.305 82.0961 200.309C81.5999 200.313 81.0676 200.414 80.4991 200.613C80.458 200.632 80.3924 200.625 80.3024 200.591C80.1823 200.547 80.0948 200.438 80.0398 200.264C79.9642 200.099 79.9514 199.95 80.0014 199.815C80.0402 199.71 80.0747 199.663 80.1047 199.674C80.7904 199.296 81.5114 199.077 82.2677 199.016C83.0034 198.964 83.7164 199.066 84.4066 199.321Z" fill="black"/>
<path d="M69.3961 192.057C70.7903 192.905 71.6314 194.016 71.9192 195.39C72.1988 196.777 71.8854 198.216 70.9789 199.706C70.0724 201.196 68.9472 202.122 67.6031 202.484C66.2507 202.86 64.8774 202.624 63.4832 201.775C62.5674 201.218 61.8883 200.534 61.446 199.721C61.0038 198.909 60.8185 198.029 60.8902 197.08C60.9619 196.131 61.2971 195.164 61.8959 194.18C62.4947 193.196 63.21 192.451 64.0418 191.946C64.8599 191.432 65.7313 191.185 66.6559 191.204C67.5805 191.224 68.4939 191.508 69.3961 192.057ZM68.8258 193.086C68.0467 192.612 67.2059 192.578 66.3033 192.985C65.3788 193.396 64.5672 194.176 63.8687 195.324C63.5111 195.912 63.2355 196.549 63.0419 197.237C62.84 197.938 62.8057 198.61 62.9389 199.253C63.0502 199.901 63.4065 200.408 64.008 200.774C64.8144 201.265 65.6799 201.305 66.6045 200.893C67.5153 200.474 68.3284 199.676 69.0436 198.5C69.7588 197.325 70.1029 196.251 70.0759 195.28C70.0353 194.3 69.6186 193.569 68.8258 193.086Z" fill="black"/>
<path d="M57.0998 183.102C57.5604 183.499 57.7789 183.92 57.7552 184.364C57.7089 184.81 57.4195 185.342 56.8868 185.96L48.6156 195.56C48.5007 195.694 48.4466 195.805 48.4533 195.896C48.4496 195.998 48.5083 196.101 48.6296 196.206L49.3387 196.817L49.142 197.376C48.5762 197.395 48.0089 197.318 47.4401 197.145C46.8609 196.984 46.4076 196.762 46.0804 196.48C45.9228 196.345 45.8373 196.187 45.8238 196.006C45.8104 195.825 45.8716 195.656 46.0074 195.499L55.4429 184.621C55.5995 184.439 55.6772 184.263 55.6759 184.093C55.6746 183.923 55.5952 183.77 55.4376 183.634C55.1345 183.373 54.7626 183.253 54.3217 183.275L54.3548 182.575C54.9051 182.5 55.4335 182.511 55.94 182.61C56.4465 182.708 56.8331 182.872 57.0998 183.102Z" fill="black"/>
<path d="M47.1751 173.004C48.2202 174.257 48.657 175.581 48.4853 176.974C48.3014 178.377 47.5397 179.637 46.2002 180.754C44.8608 181.871 43.4966 182.383 42.1076 182.292C40.7064 182.21 39.4832 181.543 38.438 180.289C37.7515 179.466 37.3302 178.598 37.1743 177.687C37.0183 176.775 37.1276 175.882 37.5022 175.007C37.8769 174.132 38.5066 173.326 39.3913 172.588C40.2761 171.851 41.1937 171.377 42.1442 171.168C43.0845 170.946 43.9889 170.994 44.8576 171.311C45.7263 171.629 46.4988 172.193 47.1751 173.004ZM46.3026 173.794C45.7186 173.093 44.9339 172.789 43.9485 172.882C42.9406 172.972 41.9206 173.448 40.8884 174.309C40.36 174.749 39.893 175.264 39.4876 175.852C39.0699 176.45 38.8201 177.075 38.7384 177.726C38.6341 178.376 38.8074 178.971 39.2582 179.512C39.8628 180.237 40.669 180.554 41.6769 180.463C42.6745 180.361 43.7017 179.869 44.7585 178.987C45.8153 178.106 46.488 177.202 46.7766 176.274C47.0549 175.333 46.8969 174.507 46.3026 173.794Z" fill="black"/>
<path d="M42.385 155.848C42.7705 156.567 42.9616 157.245 42.9582 157.883C42.9689 158.512 42.8308 159.067 42.5438 159.548C42.2634 160.007 41.8834 160.365 41.4039 160.622C40.7552 160.969 40.0881 161.046 39.4025 160.85C38.7169 160.655 38.1701 160.177 37.7619 159.415C37.7014 159.302 37.6701 159.21 37.6681 159.139C37.6802 159.06 37.7144 159.005 37.7708 158.975C37.8272 158.945 37.9962 158.972 38.2778 159.057C38.566 159.12 38.8818 159.151 39.2253 159.148C39.5613 159.132 39.9337 159.014 40.3427 158.794C40.8504 158.522 41.1941 158.147 41.3738 157.67C41.56 157.171 41.5171 156.667 41.245 156.16C40.8217 155.37 40.1804 154.969 39.321 154.958C38.4758 154.939 37.5032 155.224 36.4033 155.814L33.3784 157.435C34.3773 157.572 35.183 157.839 35.7956 158.236C36.4007 158.62 36.8657 159.115 37.1907 159.721C37.5233 160.342 37.6781 161.003 37.6551 161.705C37.6246 162.393 37.3822 163.059 36.928 163.702C36.4738 164.345 35.8096 164.9 34.9352 165.369C33.2853 166.253 31.7428 166.508 30.3077 166.134C28.865 165.745 27.7316 164.783 26.9077 163.245C26.6507 162.766 26.3655 162.048 26.0519 161.09C25.9904 160.942 25.8896 160.669 25.7495 160.272C25.6018 159.861 25.4589 159.493 25.3209 159.167L25.4515 158.852L25.9245 158.871C26.1184 158.894 26.2761 158.9 26.3975 158.89C26.5188 158.879 26.6641 158.829 26.8334 158.738L35.1887 154.259C36.754 153.42 38.1709 153.151 39.4393 153.451C40.7001 153.738 41.682 154.536 42.385 155.848ZM35.3117 159.721C35.0396 159.213 34.6453 158.817 34.129 158.531C33.605 158.231 32.953 158.081 32.1727 158.082L27.5402 160.565C27.4684 161.311 27.6139 162.023 27.9767 162.7C28.4756 163.63 29.2142 164.179 30.1924 164.344C31.149 164.503 32.2548 164.246 33.5098 163.573C34.5393 163.022 35.1874 162.402 35.4542 161.714C35.7069 161.034 35.6594 160.37 35.3117 159.721Z" fill="black"/>
<path d="M18.4466 148.257C18.5225 148.485 18.4518 148.804 18.2343 149.214C18.0168 149.624 17.7791 149.872 17.521 149.958C17.263 150.044 16.9265 149.996 16.5116 149.814C16.0916 149.616 15.8411 149.396 15.7601 149.154C15.674 148.896 15.7397 148.562 15.9572 148.152C16.1747 147.742 16.4124 147.494 16.6704 147.408C16.9285 147.322 17.2675 147.377 17.6875 147.575C18.1075 147.772 18.3605 147.999 18.4466 148.257ZM30.7404 143.397C30.9278 143.959 30.8975 144.424 30.6497 144.794C30.3816 145.153 29.8605 145.462 29.0864 145.72L22.7118 147.847C22.5296 147.907 22.4107 147.981 22.3551 148.067C22.2995 148.153 22.297 148.272 22.3476 148.424L22.659 149.357L22.2113 149.683C21.7154 149.41 21.27 149.061 20.8753 148.636C20.4755 148.196 20.2123 147.786 20.0857 147.407C20.0199 147.21 20.0274 147.03 20.1084 146.868C20.169 146.696 20.2904 146.58 20.4726 146.519L28.532 143.831C29.0025 143.674 29.1694 143.39 29.0327 142.98C28.9264 142.662 28.6658 142.361 28.2508 142.077L28.6453 141.516C29.1665 141.764 29.6194 142.059 30.004 142.403C30.3836 142.732 30.629 143.064 30.7404 143.397Z" fill="black"/>
<path d="M27.5048 130.144C27.6682 131.139 27.582 132.045 27.2461 132.862C26.9102 133.679 26.3654 134.361 25.6119 134.906C24.8426 135.454 23.9132 135.817 22.8238 135.996C21.6871 136.183 20.6469 136.119 19.7033 135.804C18.7597 135.489 17.9823 134.952 17.3712 134.193C16.7574 133.418 16.3598 132.478 16.1782 131.373C15.9862 130.205 16.1462 129.254 16.6581 128.521C17.1675 127.773 17.8564 127.327 18.7247 127.184C19.3247 127.086 19.9282 127.157 20.5353 127.398C21.1397 127.623 21.6675 128.022 22.1186 128.597C22.5672 129.156 22.8602 129.853 22.9977 130.69C23.0755 131.164 23.0809 131.69 23.0138 132.268C22.9309 132.849 22.7237 133.167 22.3922 133.222C22.2659 133.242 22.1502 133.229 22.0451 133.181C21.94 133.134 21.8809 133.071 21.8679 132.992C21.8602 132.944 21.8842 132.794 21.94 132.542C21.9774 132.276 21.9637 131.946 21.8988 131.552C21.7562 130.683 21.4091 130.051 20.8576 129.655C20.3061 129.26 19.6988 129.116 19.0357 129.225C18.4673 129.318 18.009 129.588 17.6608 130.035C17.31 130.465 17.1852 130.988 17.2863 131.604C17.4394 132.536 17.9692 133.195 18.8758 133.581C19.7641 133.954 20.9581 134.017 22.458 133.77C23.7369 133.56 24.6953 133.127 25.3334 132.471C25.953 131.802 26.1785 130.954 26.0099 129.927C25.8024 128.664 25.2206 127.69 24.2647 127.004C24.2096 126.964 24.1755 126.905 24.1625 126.826C24.1418 126.7 24.1842 126.563 24.2897 126.416C24.3927 126.253 24.5152 126.16 24.6573 126.137C24.7047 126.129 24.7546 126.137 24.8072 126.161C24.844 126.187 24.8702 126.199 24.886 126.196C25.6058 126.629 26.1924 127.19 26.6459 127.877C27.081 128.552 27.3673 129.307 27.5048 130.144Z" fill="black"/>
<path d="M27.5471 100.873C27.3803 101.867 27.0058 102.697 26.4237 103.361C25.8416 104.026 25.1059 104.495 24.2165 104.767C23.3113 105.037 22.3144 105.081 21.2256 104.898C20.0895 104.707 19.1259 104.31 18.3349 103.707C17.5438 103.104 16.9818 102.344 16.6488 101.429C16.3185 100.497 16.246 99.479 16.4314 98.3745C16.6274 97.2068 17.0861 96.3591 17.8074 95.8312C18.5314 95.2875 19.3273 95.0885 20.1952 95.2342C20.7948 95.3349 21.3429 95.5972 21.8396 96.0213C22.3389 96.4296 22.7091 96.9784 22.9503 97.6679C23.1941 98.3416 23.2459 99.0965 23.1055 99.9328C23.026 100.406 22.8611 100.906 22.6106 101.432C22.3443 101.955 22.0455 102.188 21.7141 102.133C21.5879 102.112 21.4827 102.062 21.3986 101.983C21.3146 101.904 21.2791 101.825 21.2924 101.746C21.3003 101.698 21.3715 101.564 21.5059 101.343C21.6272 101.104 21.7209 100.787 21.7871 100.393C21.9328 99.5251 21.8087 98.8147 21.4148 98.2619C21.0209 97.7091 20.4925 97.377 19.8298 97.2658C19.2618 97.1704 18.7408 97.2777 18.267 97.5875C17.7958 97.8816 17.5086 98.3363 17.4053 98.9517C17.249 99.8826 17.5374 100.677 18.2705 101.336C18.9905 101.976 20.1 102.422 21.5991 102.673C22.8772 102.888 23.9242 102.788 24.7401 102.373C25.5429 101.94 26.0303 101.211 26.2025 100.185C26.4144 98.9227 26.1789 97.8124 25.4961 96.8541C25.4568 96.7988 25.4437 96.7317 25.4569 96.6528C25.4781 96.5266 25.5624 96.411 25.7098 96.3059C25.8599 96.1851 26.006 96.1366 26.148 96.1604C26.1953 96.1684 26.24 96.1921 26.282 96.2316C26.3083 96.2685 26.3293 96.2882 26.3451 96.2909C26.8862 96.9333 27.2602 97.6532 27.4671 98.4504C27.6608 99.2292 27.6875 100.037 27.5471 100.873Z" fill="black"/>
<path d="M31.9045 84.5438C31.5562 85.4897 31.0111 86.2523 30.2692 86.8316C29.5273 87.411 28.6708 87.769 27.6996 87.9059C26.7341 88.0277 25.7483 87.9034 24.7423 87.533C23.6613 87.1349 22.7975 86.5866 22.1511 85.8882C21.4896 85.1842 21.0794 84.3767 20.9204 83.4657C20.7614 82.5546 20.8644 81.6036 21.2293 80.6127C21.6164 79.5617 22.1868 78.7998 22.9405 78.3272C23.6848 77.834 24.4548 77.7339 25.2506 78.027C25.8361 78.2426 26.2475 78.6072 26.4846 79.1208C26.7067 79.6289 26.71 80.1757 26.4943 80.7612C26.4446 80.8964 26.3936 80.9884 26.3415 81.0374C26.2893 81.0864 26.2257 81.0971 26.1507 81.0694C26.1056 81.0529 26.0246 80.9719 25.9076 80.8265C25.7962 80.6661 25.6492 80.5097 25.4666 80.3572C25.2691 80.1992 24.9976 80.0566 24.6523 79.9294C24.1118 79.7304 23.625 79.7557 23.192 80.0055C22.7496 80.2347 22.4205 80.6421 22.2049 81.2277C21.9174 82.0084 22.068 82.78 22.6568 83.5425C23.2361 84.2844 24.1489 84.8848 25.3951 85.3437C26.6563 85.8081 27.757 85.898 28.6973 85.6134C29.6431 85.3138 30.2929 84.6835 30.6468 83.7226C30.8293 83.2271 30.9181 82.7313 30.9133 82.235C30.9084 81.7388 30.806 81.2066 30.606 80.6385C30.5871 80.5974 30.5942 80.5319 30.6273 80.4418C30.6716 80.3217 30.7806 80.2339 30.9544 80.1786C31.1188 80.1027 31.2685 80.0896 31.4037 80.1394C31.5088 80.1781 31.5558 80.2125 31.5447 80.2425C31.9233 80.9275 32.1439 81.6482 32.2064 82.4044C32.2595 83.14 32.1588 83.8532 31.9045 84.5438Z" fill="black"/>
<path d="M39.1429 69.5207C38.297 70.9164 37.1875 71.7594 35.8142 72.0496C34.4272 72.3316 32.988 72.0206 31.4965 71.1167C30.005 70.2128 29.0771 69.0891 28.7126 67.7457C28.3344 66.394 28.5683 65.0203 29.4142 63.6246C29.9698 62.7078 30.6533 62.0276 31.4648 61.5839C32.2762 61.1402 33.1565 60.9534 34.1056 61.0235C35.0547 61.0936 36.0219 61.4272 37.0071 62.0242C37.9923 62.6213 38.7382 63.3353 39.2449 64.1663C39.7599 64.9835 40.0085 65.8545 39.9906 66.7791C39.9728 67.7038 39.6902 68.6177 39.1429 69.5207ZM38.1123 68.9523C38.585 68.1723 38.6175 67.3314 38.21 66.4296C37.797 65.5058 37.0158 64.6956 35.8664 63.999C35.278 63.6424 34.6399 63.3679 33.952 63.1755C33.2504 62.9748 32.5783 62.9416 31.9356 63.076C31.2875 63.1884 30.781 63.5456 30.4161 64.1476C29.9269 64.9549 29.8887 65.8205 30.3017 66.7443C30.723 67.6545 31.522 68.4661 32.6988 69.1793C33.8755 69.8925 34.9496 70.2348 35.9211 70.2062C36.9009 70.1639 37.6313 69.7459 38.1123 68.9523Z" fill="black"/>
<path d="M48.0767 57.2091C47.6806 57.6704 47.2605 57.8896 46.8162 57.8667C46.3703 57.8212 45.8377 57.5327 45.2186 57.0011L35.6041 48.7464C35.4706 48.6317 35.3587 48.5779 35.2684 48.5847C35.166 48.5812 35.0627 48.6401 34.9585 48.7615L34.3488 49.4716L33.7892 49.2759C33.7689 48.7102 33.8448 48.1427 34.0171 47.5737C34.1773 46.9942 34.398 46.5405 34.6794 46.2128C34.8149 46.0549 34.9729 45.9692 35.1534 45.9554C35.3339 45.9417 35.5031 46.0026 35.6609 46.1381L46.5552 55.5549C46.7373 55.7112 46.9134 55.7886 47.0835 55.787C47.2535 55.7854 47.4063 55.7057 47.5418 55.5479C47.8024 55.2444 47.9216 54.8722 47.8994 54.4314L48.5996 54.4632C48.6755 55.0134 48.6647 55.5419 48.567 56.0485C48.4694 56.5552 48.306 56.9421 48.0767 57.2091Z" fill="black"/>
<path d="M58.158 47.2672C56.9063 48.3145 55.5838 48.7535 54.1904 48.5843C52.7868 48.4027 51.5254 47.6432 50.4062 46.3057C49.287 44.9681 48.7721 43.6048 48.8615 42.2157C48.9406 40.8143 49.606 39.5899 50.8576 38.5426C51.6797 37.8547 52.5465 37.432 53.4578 37.2744C54.3691 37.1169 55.2625 37.2247 56.138 37.5978C57.0135 37.9709 57.8209 38.5992 58.5601 39.4827C59.2994 40.3662 59.7745 41.2831 59.9854 42.2332C60.2085 43.173 60.1622 44.0776 59.8464 44.9468C59.5307 45.8161 58.9678 46.5895 58.158 47.2672ZM57.3665 46.3961C58.0659 45.8108 58.3685 45.0256 58.2744 44.0404C58.1822 43.0327 57.7048 42.0135 56.8424 40.9827C56.4008 40.4551 55.8857 39.989 55.2969 39.5846C54.6979 39.1679 54.0726 38.9192 53.421 38.8386C52.7714 38.7354 52.1766 38.9097 51.6367 39.3615C50.9127 39.9673 50.5968 40.7741 50.689 41.7818C50.7934 42.7793 51.2871 43.8056 52.1702 44.8609C53.0532 45.9162 53.959 46.5873 54.8876 46.8743C55.8285 47.151 56.6548 46.9916 57.3665 46.3961Z" fill="black"/>
<path d="M75.3055 42.4477C74.5869 42.8345 73.9091 43.0267 73.2719 43.0244C72.6423 43.0362 72.0869 42.8991 71.6058 42.6129C71.1464 42.3332 70.7878 41.9539 70.5299 41.4749C70.1811 40.8268 70.1038 40.1598 70.2979 39.4738C70.492 38.7879 70.9694 38.2402 71.7302 37.8307C71.8429 37.7701 71.935 37.7387 72.0065 37.7365C72.0857 37.7484 72.1404 37.7826 72.1707 37.8389C72.201 37.8953 72.1739 38.0643 72.0893 38.3461C72.0264 38.6343 71.9966 38.9502 71.9998 39.2937C72.0171 39.6296 72.1356 40.0019 72.3556 40.4105C72.6285 40.9177 73.004 41.2607 73.4818 41.4396C73.9814 41.625 74.4847 41.5812 74.9919 41.3082C75.7809 40.8836 76.1804 40.2416 76.1903 39.3822C76.2077 38.537 75.9207 37.5649 75.3293 36.466L73.7027 33.4439C73.5681 34.443 73.3025 35.2492 72.9058 35.8625C72.5231 36.4682 72.0289 36.9341 71.4231 37.2601C70.8032 37.5938 70.1421 37.7497 69.4399 37.7279C68.7518 37.6985 68.0859 37.4573 67.4423 37.0042C66.7987 36.5511 66.2418 35.8878 65.7717 35.0143C64.8844 33.3659 64.6268 31.8239 64.9987 30.3881C65.3848 28.9447 66.3456 27.8097 67.8813 26.9832C68.3604 26.7254 69.0783 26.4389 70.0352 26.1237C70.1837 26.0619 70.4563 25.9607 70.8529 25.8199C71.2637 25.6715 71.6316 25.528 71.9567 25.3893L72.272 25.5194L72.2541 25.9924C72.2313 26.1864 72.2253 26.344 72.2361 26.4654C72.2469 26.5868 72.2978 26.732 72.3888 26.9011L76.8818 35.2487C77.7235 36.8126 77.9953 38.229 77.6971 39.4979C77.4129 40.7592 76.6157 41.7425 75.3055 42.4477ZM71.4202 35.3811C71.9274 35.1081 72.3235 34.7131 72.6086 34.1963C72.9078 33.6719 73.0564 33.0195 73.0543 32.2393L70.5633 27.6111C69.8166 27.5405 69.1052 27.6872 68.4289 28.0512C67.4991 28.5517 66.9522 29.2912 66.7884 30.2697C66.6311 31.2266 66.8899 32.3319 67.5648 33.5859C68.1184 34.6143 68.7392 35.2614 69.4273 35.527C70.1078 35.7785 70.7721 35.7299 71.4202 35.3811Z" fill="black"/>
<path d="M82.8552 18.496C82.6276 18.5724 82.3088 18.5022 81.8985 18.2854C81.4882 18.0686 81.2399 17.8313 81.1534 17.5734C81.0668 17.3155 81.1142 16.979 81.2956 16.5637C81.4921 16.1434 81.7117 15.8925 81.9544 15.8111C82.2123 15.7246 82.5464 15.7897 82.9566 16.0065C83.3669 16.2233 83.6152 16.4606 83.7018 16.7185C83.7883 16.9763 83.7333 17.3154 83.5368 17.7358C83.3403 18.1561 83.1131 18.4095 82.8552 18.496ZM87.7363 30.7815C87.175 30.9698 86.7095 30.9404 86.3397 30.6932C85.9799 30.4257 85.6702 29.9052 85.4107 29.1315L83.2733 22.7605C83.2122 22.5785 83.1386 22.4597 83.0525 22.4042C82.9664 22.3487 82.8475 22.3464 82.6958 22.3973L81.7629 22.7103L81.4357 22.2632C81.7079 21.7668 82.0562 21.3209 82.4804 20.9254C82.9198 20.5248 83.3292 20.2609 83.7084 20.1337C83.9056 20.0675 84.0852 20.0748 84.2473 20.1554C84.4194 20.2158 84.536 20.337 84.5971 20.519L87.2994 28.5738C87.4572 29.0441 87.7408 29.2105 88.1504 29.0731C88.4689 28.9662 88.7695 28.7051 89.052 28.2896L89.6144 28.6832C89.3675 29.2048 89.0724 29.6582 88.7291 30.0434C88.4009 30.4235 88.07 30.6696 87.7363 30.7815Z" fill="black"/>
<path d="M100.984 27.5232C99.9896 27.6883 99.0835 27.6036 98.2656 27.2691C97.4477 26.9346 96.7655 26.3911 96.2188 25.6385C95.6694 24.8701 95.3043 23.9413 95.1234 22.8523C94.9347 21.7158 94.9971 20.6756 95.3106 19.7314C95.6242 18.7873 96.1599 18.009 96.9178 17.3965C97.6915 16.7815 98.6307 16.3822 99.7356 16.1987C100.904 16.0047 101.854 16.163 102.588 16.6737C103.337 17.1818 103.784 17.8699 103.928 18.738C104.028 19.3378 103.958 19.9414 103.718 20.5489C103.494 21.1538 103.095 21.6823 102.522 22.1344C101.964 22.5839 101.267 22.8781 100.43 23.017C99.9566 23.0957 99.4306 23.1019 98.8519 23.0359C98.2706 22.954 97.9525 22.7473 97.8974 22.4159C97.8765 22.2896 97.8897 22.1739 97.9371 22.0687C97.9845 21.9635 98.0476 21.9043 98.1266 21.8912C98.1739 21.8834 98.3238 21.9071 98.5763 21.9625C98.842 21.9995 99.1721 21.9852 99.5667 21.9197C100.435 21.7755 101.066 21.4273 101.461 20.8751C101.856 20.323 101.998 19.7154 101.888 19.0525C101.794 18.4843 101.523 18.0265 101.076 17.679C100.645 17.3289 100.122 17.205 99.5061 17.3072C98.5749 17.4619 97.917 17.9929 97.5325 18.9002C97.1611 19.789 97.0999 20.9832 97.349 22.4826C97.5613 23.7611 97.9961 24.7188 98.6533 25.3557C99.3237 25.9743 100.172 26.1983 101.198 26.0279C102.461 25.8182 103.434 25.2348 104.119 24.2777C104.158 24.2225 104.217 24.1883 104.296 24.1752C104.422 24.1543 104.559 24.1964 104.706 24.3017C104.869 24.4044 104.963 24.5268 104.986 24.6688C104.994 24.7162 104.986 24.7661 104.963 24.8187C104.936 24.8555 104.924 24.8818 104.927 24.8976C104.495 25.6181 103.936 26.2057 103.249 26.6604C102.576 27.0966 101.82 27.3842 100.984 27.5232Z" fill="black"/>
<path d="M130.255 27.5152C129.261 27.35 128.431 26.9769 127.765 26.396C127.099 25.8151 126.629 25.0801 126.355 24.1912C126.083 23.2865 126.038 22.2896 126.219 21.2005C126.408 20.0641 126.803 19.0999 127.405 18.3078C128.007 17.5157 128.766 16.9524 129.681 16.6178C130.612 16.2858 131.63 16.2116 132.734 16.3951C133.902 16.5891 134.751 17.0463 135.28 17.7668C135.825 18.4898 136.025 19.2854 135.881 20.1535C135.782 20.7533 135.52 21.3019 135.097 21.7992C134.69 22.2992 134.141 22.6704 133.452 22.9128C132.779 23.1578 132.024 23.2109 131.188 23.0719C130.714 22.9933 130.214 22.8291 129.688 22.5796C129.164 22.3142 128.93 22.0158 128.985 21.6843C129.006 21.558 129.056 21.4528 129.135 21.3686C129.214 21.2844 129.293 21.2488 129.372 21.2619C129.419 21.2698 129.553 21.3407 129.774 21.4747C130.014 21.5956 130.331 21.6888 130.725 21.7543C131.593 21.8985 132.303 21.7732 132.856 21.3783C133.408 20.9835 133.739 20.4546 133.849 19.7916C133.943 19.2234 133.835 18.7027 133.525 18.2294C133.23 17.7587 132.775 17.4722 132.159 17.37C131.228 17.2153 130.434 17.5051 129.776 18.2394C129.138 18.9605 128.694 20.0707 128.445 21.5702C128.232 22.8487 128.334 23.8955 128.75 24.7107C129.185 25.5127 129.915 25.9989 130.941 26.1693C132.203 26.3791 133.313 26.1417 134.27 25.4573C134.326 25.4178 134.393 25.4046 134.472 25.4177C134.598 25.4387 134.714 25.5228 134.819 25.67C134.94 25.8199 134.989 25.9658 134.965 26.1079C134.957 26.1552 134.934 26.2 134.894 26.2421C134.857 26.2684 134.838 26.2895 134.835 26.3052C134.194 26.8475 133.474 27.2227 132.678 27.4309C131.899 27.626 131.092 27.6541 130.255 27.5152Z" fill="black"/>
<path d="M146.592 31.8446C145.645 31.4979 144.882 30.9541 144.301 30.2132C143.72 29.4723 143.361 28.6164 143.222 27.6455C143.099 26.6801 143.222 25.6942 143.59 24.6876C143.986 23.6059 144.533 22.7412 145.231 22.0935C145.933 21.4308 146.74 21.0192 147.651 20.8586C148.562 20.6981 149.513 20.7995 150.504 21.1627C151.556 21.5479 152.319 22.117 152.793 22.8699C153.287 23.6134 153.389 24.3832 153.097 25.1795C152.882 25.7654 152.519 26.1774 152.005 26.4154C151.498 26.6384 150.951 26.6426 150.365 26.4279C150.23 26.3784 150.138 26.3276 150.089 26.2756C150.039 26.2235 150.029 26.1599 150.056 26.0848C150.073 26.0397 150.154 25.9586 150.299 25.8413C150.459 25.7296 150.615 25.5824 150.767 25.3995C150.925 25.2017 151.067 24.93 151.194 24.5845C151.392 24.0436 151.366 23.5569 151.115 23.1244C150.885 22.6823 150.477 22.3539 149.891 22.1393C149.11 21.8531 148.339 22.0051 147.577 22.5952C146.836 23.1758 146.237 24.0896 145.781 25.3366C145.318 26.5986 145.23 27.6995 145.517 28.6392C145.818 29.5845 146.449 30.2333 147.411 30.5855C147.907 30.7671 148.403 30.8551 148.899 30.8494C149.395 30.8437 149.927 30.7404 150.495 30.5394C150.536 30.5204 150.601 30.5274 150.692 30.5604C150.812 30.6044 150.9 30.7133 150.955 30.887C151.031 31.0512 151.045 31.201 150.995 31.3362C150.957 31.4413 150.922 31.4884 150.892 31.4774C150.208 31.8572 149.488 32.079 148.732 32.1428C147.996 32.1972 147.283 32.0977 146.592 31.8446Z" fill="black"/>
<path d="M161.627 39.0572C160.23 38.2137 159.385 37.1056 159.092 35.7328C158.808 34.3463 159.117 32.9066 160.018 31.4136C160.919 29.9206 162.041 28.9906 163.384 28.6239C164.735 28.2434 166.109 28.4749 167.507 29.3183C168.424 29.8724 169.106 30.5547 169.551 31.3654C169.996 32.1761 170.184 33.0561 170.116 34.0053C170.047 34.9546 169.715 35.9223 169.12 36.9085C168.525 37.8947 167.812 38.6419 166.982 39.15C166.165 39.6664 165.295 39.9165 164.37 39.9002C163.445 39.884 162.531 39.603 161.627 39.0572ZM162.194 38.0256C162.975 38.497 163.815 38.5281 164.717 38.1189C165.64 37.7044 166.449 36.9218 167.143 35.7712C167.499 35.1822 167.772 34.5436 167.963 33.8554C168.163 33.1535 168.195 32.4813 168.059 31.8388C167.946 31.1909 167.588 30.6851 166.985 30.3212C166.177 29.8333 165.311 29.7967 164.388 30.2113C163.479 30.6341 162.669 31.4345 161.957 32.6125C161.246 33.7905 160.906 34.8652 160.936 35.8366C160.98 36.8164 161.399 37.546 162.194 38.0256Z" fill="black"/>
<path d="M173.954 47.9696C173.492 47.5743 173.272 47.1545 173.294 46.7102C173.339 46.2642 173.627 45.7311 174.157 45.1111L182.395 35.4824C182.51 35.3487 182.563 35.2367 182.556 35.1465C182.56 35.0441 182.501 34.9409 182.379 34.8368L181.668 34.2283L181.863 33.6685C182.428 33.6472 182.996 33.7221 183.565 33.8934C184.145 34.0526 184.599 34.2726 184.927 34.5534C185.085 34.6886 185.171 34.8465 185.185 35.027C185.2 35.2074 185.139 35.3767 185.004 35.5348L175.606 46.4452C175.45 46.6276 175.373 46.8038 175.374 46.9739C175.376 47.144 175.456 47.2966 175.614 47.4318C175.918 47.6919 176.291 47.8104 176.731 47.7875L176.701 48.4877C176.151 48.5646 175.622 48.5546 175.115 48.4579C174.609 48.3612 174.221 48.1984 173.954 47.9696Z" fill="black"/>
<path d="M183.913 58.0338C182.864 56.784 182.422 55.4622 182.589 54.0686C182.768 52.6646 183.526 51.4019 184.861 50.2804C186.197 49.1589 187.559 48.6417 188.949 48.7287C190.35 48.8054 191.576 49.4686 192.625 50.7185C193.315 51.5394 193.739 52.4054 193.898 53.3165C194.057 54.2275 193.951 55.1211 193.579 55.9972C193.207 56.8734 192.581 57.6818 191.698 58.4226C190.816 59.1634 189.9 59.6401 188.95 59.8526C188.011 60.0773 187.106 60.0326 186.236 59.7183C185.367 59.404 184.592 58.8425 183.913 58.0338ZM184.783 57.2408C185.369 57.9393 186.155 58.2405 187.14 58.1447C188.148 58.0508 189.166 57.5717 190.195 56.7074C190.722 56.265 191.187 55.7491 191.591 55.1596C192.007 54.5599 192.254 53.9341 192.334 53.2824C192.436 52.6326 192.26 52.0381 191.808 51.499C191.201 50.776 190.393 50.4615 189.386 50.5554C188.388 50.6616 187.363 51.1571 186.309 52.0419C185.255 52.9268 184.586 53.8337 184.3 54.7628C184.025 55.7041 184.186 56.5301 184.783 57.2408Z" fill="black"/>
<path d="M188.762 75.1732C188.374 74.4553 188.181 73.7778 188.182 73.1406C188.169 72.511 188.305 71.9554 188.591 71.4738C188.87 71.0139 189.248 70.6546 189.727 70.396C190.374 70.0461 191.041 69.9675 191.728 70.1605C192.414 70.3534 192.962 70.8299 193.373 71.59C193.434 71.7026 193.466 71.7946 193.468 71.8662C193.456 71.9453 193.422 72.0001 193.366 72.0305C193.309 72.0609 193.14 72.0341 192.858 71.95C192.57 71.8876 192.254 71.8583 191.911 71.8621C191.575 71.8799 191.203 71.9992 190.795 72.2198C190.288 72.4936 189.945 72.8696 189.767 73.3478C189.583 73.8477 189.627 74.351 189.901 74.8577C190.327 75.6459 190.97 76.0443 191.829 76.0527C192.675 76.0687 193.646 75.7801 194.744 75.1867L197.763 73.5549C196.764 73.4221 195.957 73.1578 195.343 72.7622C194.737 72.3806 194.27 71.8871 193.943 71.2819C193.609 70.6625 193.451 70.0018 193.472 69.2995C193.5 68.6113 193.74 67.9451 194.192 67.3007C194.644 66.6563 195.307 66.0983 196.179 65.6266C197.826 64.7366 199.368 64.4763 200.804 64.8457C202.248 65.2293 203.385 66.1882 204.214 67.7225C204.473 68.201 204.76 68.9185 205.077 69.8749C205.139 70.0233 205.241 70.2957 205.383 70.6921C205.532 71.1025 205.676 71.4702 205.815 71.7951L205.685 72.1106L205.212 72.0935C205.018 72.071 204.861 72.0653 204.739 72.0763C204.618 72.0874 204.473 72.1385 204.304 72.2298L195.964 76.7371C194.402 77.5816 192.986 77.8557 191.716 77.5597C190.454 77.2777 189.47 76.4822 188.762 75.1732ZM195.822 71.2757C196.096 71.7825 196.492 72.1779 197.009 72.4621C197.534 72.7604 198.187 72.9079 198.967 72.9045L203.591 70.4055C203.66 69.6587 203.512 68.9475 203.147 68.2719C202.645 67.3429 201.904 66.7973 200.926 66.6352C199.969 66.4796 198.864 66.7403 197.611 67.4173C196.583 67.9726 195.937 68.5946 195.673 69.2831C195.423 69.964 195.472 70.6282 195.822 71.2757Z" fill="black"/>
<path d="M212.727 82.6816C212.65 82.4542 212.72 82.1352 212.936 81.7246C213.152 81.3139 213.389 81.0652 213.646 80.9782C213.904 80.8912 214.241 80.9381 214.656 81.1187C215.077 81.3145 215.328 81.5337 215.41 81.7762C215.497 82.034 215.433 82.3681 215.216 82.7788C215 83.1894 214.764 83.4382 214.506 83.5251C214.248 83.6121 213.909 83.5577 213.488 83.3619C213.068 83.1661 212.814 82.9393 212.727 82.6816ZM200.45 87.5838C200.26 87.0229 200.289 86.5573 200.536 86.187C200.802 85.8268 201.322 85.5163 202.096 85.2554L208.463 83.1071C208.645 83.0457 208.764 82.9719 208.819 82.8857C208.874 82.7994 208.876 82.6805 208.825 82.5289L208.511 81.5966L208.957 81.2686C209.454 81.54 209.901 81.8875 210.297 82.311C210.698 82.7498 210.963 83.1586 211.091 83.5376C211.157 83.7347 211.15 83.9144 211.07 84.0766C211.01 84.2488 210.889 84.3656 210.707 84.427L202.657 87.1432C202.187 87.3017 202.021 87.5857 202.159 87.995C202.266 88.3134 202.528 88.6135 202.944 88.8953L202.551 89.4583C202.029 89.2123 201.575 88.918 201.189 88.5754C200.809 88.2479 200.562 87.9174 200.45 87.5838Z" fill="black"/>
<path d="M203.731 100.826C203.564 99.8316 203.647 98.9253 203.98 98.1069C204.313 97.2885 204.856 96.6053 205.608 96.0573C206.375 95.5066 207.303 95.1399 208.392 94.9572C209.528 94.7665 210.568 94.8271 211.513 95.139C212.458 95.4509 213.237 95.9853 213.851 96.7421C214.467 97.5148 214.868 98.4533 215.053 99.5579C215.249 100.726 215.093 101.677 214.583 102.411C214.076 103.161 213.389 103.609 212.521 103.755C211.922 103.856 211.318 103.787 210.71 103.548C210.105 103.325 209.576 102.927 209.122 102.354C208.672 101.797 208.377 101.1 208.236 100.264C208.157 99.7908 208.15 99.2647 208.215 98.686C208.295 98.1045 208.502 97.786 208.833 97.7304C208.959 97.7092 209.075 97.7222 209.18 97.7695C209.286 97.8167 209.345 97.8797 209.358 97.9586C209.366 98.006 209.342 98.1559 209.288 98.4085C209.251 98.6742 209.266 99.0043 209.332 99.3988C209.478 100.267 209.827 100.898 210.38 101.291C210.933 101.685 211.54 101.827 212.203 101.715C212.771 101.62 213.229 101.349 213.575 100.901C213.925 100.469 214.048 99.9457 213.944 99.3303C213.788 98.3994 213.256 97.7424 212.348 97.3594C211.459 96.9895 210.264 96.9304 208.765 97.182C207.487 97.3966 206.53 97.833 205.894 98.4914C205.277 99.1628 205.054 100.011 205.227 101.037C205.438 102.299 206.024 103.272 206.982 103.955C207.037 103.994 207.071 104.053 207.085 104.132C207.106 104.258 207.064 104.395 206.959 104.543C206.856 104.706 206.734 104.799 206.592 104.823C206.545 104.831 206.495 104.823 206.442 104.8C206.405 104.773 206.379 104.762 206.363 104.764C205.642 104.334 205.054 103.775 204.598 103.089C204.16 102.417 203.871 101.662 203.731 100.826Z" fill="black"/>
<path d="M203.789 130.097C203.953 129.102 204.324 128.271 204.904 127.605C205.484 126.938 206.218 126.467 207.107 126.191C208.011 125.918 209.008 125.871 210.097 126.05C211.234 126.237 212.199 126.63 212.992 127.231C213.785 127.832 214.35 128.589 214.686 129.504C215.019 130.434 215.095 131.452 214.914 132.557C214.722 133.725 214.266 134.575 213.546 135.105C212.824 135.651 212.029 135.853 211.161 135.71C210.561 135.612 210.012 135.351 209.514 134.929C209.013 134.522 208.641 133.975 208.397 133.286C208.151 132.613 208.097 131.858 208.234 131.022C208.312 130.548 208.475 130.048 208.724 129.521C208.988 128.997 209.286 128.762 209.618 128.817C209.744 128.838 209.85 128.887 209.934 128.966C210.018 129.045 210.054 129.124 210.041 129.203C210.033 129.25 209.963 129.384 209.829 129.606C209.708 129.845 209.616 130.162 209.551 130.557C209.408 131.425 209.535 132.135 209.931 132.687C210.326 133.238 210.856 133.569 211.519 133.677C212.087 133.771 212.608 133.662 213.081 133.35C213.551 133.055 213.837 132.599 213.938 131.983C214.091 131.052 213.8 130.258 213.064 129.602C212.342 128.965 211.231 128.523 209.731 128.276C208.452 128.066 207.406 128.17 206.591 128.587C205.79 129.023 205.305 129.754 205.136 130.78C204.929 132.043 205.168 133.153 205.854 134.109C205.894 134.164 205.907 134.231 205.894 134.31C205.873 134.436 205.789 134.552 205.642 134.658C205.493 134.779 205.347 134.828 205.205 134.805C205.157 134.797 205.113 134.773 205.07 134.734C205.044 134.697 205.023 134.677 205.007 134.675C204.464 134.034 204.087 133.316 203.878 132.519C203.681 131.741 203.652 130.933 203.789 130.097Z" fill="black"/>
<path d="M199.488 146.441C199.833 145.494 200.376 144.729 201.116 144.147C201.855 143.566 202.711 143.205 203.681 143.064C204.647 142.939 205.633 143.06 206.64 143.427C207.722 143.821 208.588 144.367 209.237 145.063C209.901 145.765 210.314 146.571 210.476 147.481C210.638 148.392 210.538 149.343 210.177 150.335C209.793 151.388 209.226 152.151 208.473 152.627C207.731 153.122 206.961 153.225 206.164 152.935C205.578 152.721 205.165 152.358 204.927 151.845C204.703 151.338 204.698 150.791 204.911 150.205C204.961 150.07 205.011 149.977 205.063 149.928C205.115 149.879 205.179 149.868 205.254 149.895C205.299 149.912 205.38 149.993 205.498 150.138C205.61 150.298 205.757 150.453 205.94 150.605C206.138 150.763 206.41 150.904 206.756 151.03C207.297 151.227 207.784 151.2 208.216 150.949C208.658 150.718 208.985 150.31 209.199 149.724C209.484 148.942 209.331 148.171 208.739 147.41C208.157 146.671 207.242 146.073 205.995 145.619C204.732 145.159 203.631 145.072 202.692 145.36C201.747 145.663 201.099 146.296 200.749 147.258C200.568 147.754 200.481 148.25 200.487 148.746C200.494 149.242 200.598 149.774 200.8 150.342C200.819 150.383 200.812 150.448 200.779 150.538C200.736 150.659 200.627 150.747 200.453 150.803C200.289 150.879 200.139 150.893 200.004 150.843C199.899 150.805 199.852 150.771 199.863 150.741C199.482 150.057 199.259 149.337 199.194 148.581C199.138 147.846 199.236 147.132 199.488 146.441Z" fill="black"/>
<path d="M192.301 161.489C193.142 160.09 194.249 159.243 195.621 158.948C197.007 158.661 198.447 158.967 199.942 159.866C201.436 160.765 202.368 161.886 202.737 163.228C203.12 164.578 202.891 165.953 202.05 167.351C201.498 168.27 200.816 168.952 200.006 169.399C199.196 169.845 198.317 170.035 197.367 169.968C196.418 169.902 195.45 169.571 194.463 168.978C193.475 168.384 192.727 167.673 192.217 166.843C191.7 166.028 191.448 165.158 191.463 164.233C191.477 163.308 191.757 162.393 192.301 161.489ZM193.334 162.053C192.864 162.835 192.834 163.676 193.245 164.576C193.661 165.499 194.445 166.306 195.596 166.999C196.186 167.354 196.825 167.626 197.514 167.816C198.216 168.014 198.888 168.045 199.53 167.908C200.178 167.794 200.683 167.435 201.046 166.832C201.533 166.023 201.568 165.157 201.152 164.235C200.727 163.326 199.926 162.517 198.746 161.808C197.567 161.099 196.492 160.76 195.52 160.792C194.541 160.838 193.812 161.258 193.334 162.053Z" fill="black"/>
<path d="M183.41 173.831C183.804 173.368 184.224 173.147 184.668 173.169C185.114 173.213 185.648 173.5 186.269 174.029L195.911 182.251C196.045 182.365 196.157 182.418 196.248 182.411C196.35 182.414 196.453 182.355 196.557 182.233L197.164 181.521L197.725 181.715C197.747 182.28 197.673 182.848 197.502 183.418C197.344 183.998 197.125 184.452 196.845 184.781C196.71 184.939 196.552 185.026 196.372 185.04C196.191 185.054 196.022 184.994 195.864 184.859L184.937 175.48C184.754 175.324 184.578 175.247 184.408 175.249C184.238 175.252 184.085 175.332 183.95 175.49C183.691 175.795 183.573 176.167 183.597 176.608L182.896 176.578C182.819 176.029 182.828 175.5 182.924 174.993C183.019 174.486 183.181 174.099 183.41 173.831Z" fill="black"/>
<path d="M173.363 183.808C174.611 182.756 175.932 182.312 177.326 182.477C178.73 182.654 179.994 183.409 181.118 184.742C182.242 186.076 182.761 187.438 182.677 188.827C182.602 190.229 181.941 191.455 180.693 192.507C179.873 193.198 179.008 193.623 178.097 193.784C177.187 193.945 176.293 193.84 175.416 193.47C174.539 193.1 173.73 192.474 172.987 191.593C172.245 190.712 171.767 189.797 171.553 188.848C171.326 187.909 171.37 187.004 171.682 186.134C171.995 185.263 172.555 184.488 173.363 183.808ZM174.157 184.676C173.46 185.264 173.16 186.05 173.258 187.035C173.353 188.042 173.834 189.06 174.7 190.087C175.143 190.614 175.66 191.078 176.25 191.48C176.851 191.895 177.477 192.141 178.129 192.22C178.779 192.321 179.373 192.144 179.911 191.691C180.633 191.082 180.946 190.275 180.851 189.267C180.743 188.27 180.246 187.245 179.359 186.193C178.472 185.141 177.564 184.473 176.635 184.189C175.693 183.916 174.867 184.078 174.157 184.676Z" fill="black"/>
<path d="M156.232 188.686C156.949 188.297 157.627 188.102 158.264 188.102C158.893 188.088 159.449 188.223 159.931 188.508C160.392 188.786 160.751 189.164 161.011 189.642C161.362 190.289 161.442 190.956 161.25 191.643C161.058 192.329 160.583 192.878 159.823 193.291C159.711 193.352 159.619 193.383 159.547 193.386C159.468 193.374 159.413 193.34 159.383 193.284C159.352 193.228 159.379 193.058 159.462 192.776C159.524 192.488 159.553 192.172 159.549 191.828C159.53 191.493 159.41 191.121 159.189 190.713C158.914 190.207 158.538 189.865 158.059 189.688C157.559 189.504 157.056 189.55 156.55 189.824C155.762 190.252 155.365 190.895 155.358 191.754C155.343 192.6 155.634 193.571 156.229 194.668L157.866 197.684C157.997 196.685 158.26 195.877 158.654 195.263C159.035 194.656 159.528 194.188 160.132 193.86C160.751 193.524 161.412 193.366 162.114 193.385C162.802 193.412 163.469 193.651 164.114 194.102C164.759 194.553 165.318 195.215 165.791 196.086C166.684 197.732 166.947 199.273 166.58 200.71C166.199 202.155 165.242 203.293 163.709 204.125C163.231 204.384 162.514 204.673 161.558 204.992C161.41 205.054 161.138 205.156 160.742 205.298C160.332 205.448 159.964 205.593 159.64 205.733L159.324 205.604L159.34 205.131C159.362 204.937 159.368 204.779 159.356 204.658C159.345 204.536 159.294 204.391 159.202 204.222L154.681 195.89C153.833 194.329 153.557 192.914 153.851 191.644C154.13 190.382 154.924 189.396 156.232 188.686ZM160.142 195.739C159.635 196.014 159.241 196.41 158.957 196.928C158.66 197.453 158.514 198.106 158.518 198.886L161.025 203.506C161.772 203.574 162.483 203.425 163.158 203.059C164.086 202.555 164.631 201.814 164.791 200.835C164.945 199.877 164.682 198.773 164.003 197.521C163.446 196.494 162.823 195.85 162.134 195.586C161.453 195.337 160.789 195.388 160.142 195.739Z" fill="black"/>
<path d="M148.765 212.663C148.992 212.586 149.311 212.655 149.722 212.871C150.133 213.086 150.382 213.322 150.47 213.58C150.557 213.838 150.511 214.174 150.331 214.59C150.136 215.011 149.917 215.263 149.675 215.345C149.417 215.432 149.083 215.368 148.672 215.153C148.261 214.938 148.012 214.701 147.924 214.444C147.837 214.186 147.891 213.847 148.086 213.426C148.281 213.005 148.507 212.751 148.765 212.663ZM143.841 200.395C144.402 200.204 144.868 200.232 145.238 200.478C145.599 200.744 145.91 201.264 146.173 202.037L148.332 208.4C148.394 208.582 148.468 208.701 148.554 208.756C148.64 208.811 148.759 208.813 148.911 208.761L149.842 208.445L150.171 208.891C149.901 209.389 149.554 209.836 149.131 210.233C148.693 210.635 148.285 210.9 147.906 211.028C147.709 211.095 147.529 211.089 147.367 211.009C147.195 210.949 147.078 210.828 147.016 210.646L144.286 202.601C144.126 202.131 143.842 201.966 143.433 202.104C143.115 202.212 142.815 202.475 142.534 202.891L141.97 202.499C142.216 201.977 142.509 201.522 142.851 201.136C143.178 200.755 143.508 200.508 143.841 200.395Z" fill="black"/>
<path d="M130.605 203.699C131.599 203.53 132.505 203.612 133.324 203.943C134.143 204.275 134.827 204.816 135.377 205.567C135.929 206.333 136.297 207.261 136.482 208.349C136.674 209.485 136.615 210.526 136.305 211.471C135.995 212.416 135.462 213.196 134.706 213.811C133.934 214.429 132.997 214.831 131.892 215.019C130.725 215.217 129.774 215.062 129.038 214.553C128.287 214.048 127.838 213.361 127.691 212.494C127.589 211.894 127.657 211.291 127.895 210.682C128.117 210.077 128.514 209.547 129.086 209.093C129.642 208.641 130.338 208.345 131.174 208.203C131.648 208.123 132.174 208.114 132.752 208.179C133.334 208.258 133.653 208.464 133.709 208.795C133.731 208.921 133.718 209.037 133.671 209.143C133.624 209.248 133.561 209.307 133.482 209.321C133.434 209.329 133.284 209.305 133.032 209.251C132.766 209.215 132.436 209.23 132.042 209.297C131.174 209.444 130.544 209.795 130.151 210.348C129.758 210.902 129.617 211.51 129.73 212.172C129.826 212.74 130.098 213.197 130.547 213.543C130.979 213.892 131.503 214.014 132.118 213.909C133.049 213.752 133.705 213.218 134.086 212.31C134.454 211.42 134.512 210.225 134.257 208.727C134.041 207.449 133.603 206.493 132.943 205.858C132.271 205.242 131.422 205.021 130.396 205.195C129.134 205.409 128.163 205.995 127.482 206.955C127.442 207.01 127.383 207.045 127.304 207.058C127.178 207.079 127.041 207.038 126.894 206.933C126.73 206.831 126.637 206.709 126.612 206.567C126.604 206.519 126.612 206.469 126.636 206.417C126.662 206.38 126.674 206.353 126.671 206.338C127.1 205.616 127.658 205.026 128.343 204.569C129.015 204.131 129.769 203.84 130.605 203.699Z" fill="black"/>
</g>
</svg>
